<svg id="round-logo" xmlns="http://www.w3.org/2000/svg" viewBox="0 0 153 151.68"><defs><style>.ae5943f7-7adb-401c-a56b-f2f68a10fe27{fill:none;}.bae07c46-26f5-47c4-bf67-2e9b75d8e27e{fill:#fff;}.a9de5e26-9498-4ea4-9316-2cae6c8d7278{clip-path:url(#f30f0fb5-e877-41d1-8df1-2feb023aa6d9);}.b045aa62-a44f-43ec-ae33-f6bb09d703e8{fill:#f0960c;}</style><clipPath id="f30f0fb5-e877-41d1-8df1-2feb023aa6d9" transform="translate(-0.01)"><circle class="ae5943f7-7adb-401c-a56b-f2f68a10fe27" cx="76.85" cy="75.84" r="75.84"/></clipPath></defs><g id="a9c118a8-e9eb-4750-a150-af043c299a50" data-name="e93d5791-e094-4864-9167-2a80786a8b28"><g id="f212ffb6-66a4-45d4-9a70-39194aa80e46" data-name="b1cd3576-e4a1-4a71-9980-627dae961e4d"><circle class="bae07c46-26f5-47c4-bf67-2e9b75d8e27e" cx="76.84" cy="75.84" r="75.84"/><path class="bae07c46-26f5-47c4-bf67-2e9b75d8e27e" d="M67.82,7.44c26.47.84,60.92,24.16,69.12,48.1a47.17,47.17,0,0,1,2.86,16.68c-.84,26.47-24.16,60.91-48.1,69.12A47,47,0,0,1,75,144.19C48.56,143.36,14.11,120,5.9,96.09A47.15,47.15,0,0,1,3,79.42C3.89,53,27.21,18.51,51.15,10.3A47.16,47.16,0,0,1,67.82,7.44Z" transform="translate(-0.01)"/><path class="bae07c46-26f5-47c4-bf67-2e9b75d8e27e" d="M58.8,14.89C76.41,13.63,119.39,38,123.61,54.28c2.69,3.79,3.68,9.09,3.3,14.32-1.25,17.61-23.06,60.58-39.4,64.81-3.78,2.69-9.08,3.67-14.31,3.3-17.61-1.26-60.59-23.07-64.81-39.4C5.7,93.52,4.72,88.23,5.09,83c1.26-17.61,23.06-60.59,39.4-64.81C48.28,15.5,53.57,15.26,58.8,14.89Z" transform="translate(-0.01)"/><path class="bae07c46-26f5-47c4-bf67-2e9b75d8e27e" d="M49.78,22.33c8.76,1.07,58.39,22.53,60.5,30.7,3.24,2.64,4.31,7.35,3.74,11.94-1.07,8.77-22.53,58.4-30.7,60.51-2.63,3.24-7.34,4.3-11.94,3.74-8.77-1.07-58.37-22.53-60.51-30.7-3.24-2.64-4.3-7.35-3.74-11.94,1.07-8.77,22.53-58.4,30.7-60.51C40.47,22.83,45.18,21.77,49.78,22.33Z" transform="translate(-0.01)"/><rect class="bae07c46-26f5-47c4-bf67-2e9b75d8e27e" x="17.58" y="38.18" width="75.14" height="75.14" rx="7.39" transform="translate(-35.5 99.5) rotate(-68.62)"/><g class="a9de5e26-9498-4ea4-9316-2cae6c8d7278"><path class="b045aa62-a44f-43ec-ae33-f6bb09d703e8" d="M6.08,83.34l.11-15.29L0,68V64.19l17.75.12,1.42,1.79-1.44,2H10.52l-.09,15.27Z" transform="translate(-0.01)"/><path class="b045aa62-a44f-43ec-ae33-f6bb09d703e8" d="M13.43,83.41,13.53,70h4l.13,1.69A6.21,6.21,0,0,1,19,70.38a4,4,0,0,1,2.34-.61,7.26,7.26,0,0,1,.93.06A3.29,3.29,0,0,1,23,70l-.69,3.63a5.36,5.36,0,0,0-1.49-.21,3.07,3.07,0,0,0-3.29,3.33v6.64Z" transform="translate(-0.01)"/><path class="b045aa62-a44f-43ec-ae33-f6bb09d703e8" d="M31.45,83.53l-.11-1.26a5,5,0,0,1-4.08,1.63,5.71,5.71,0,0,1-2-.37,3.7,3.7,0,0,1-2.51-3.81,4.38,4.38,0,0,1,.83-2.66,5.13,5.13,0,0,1,2.24-1.63A8.27,8.27,0,0,1,29,74.89h1.45a8.26,8.26,0,0,1,1,.09V74.7a1.57,1.57,0,0,0-.78-1.48,3.62,3.62,0,0,0-1.79-.46,6.2,6.2,0,0,0-2.26.33,6.76,6.76,0,0,0-1.55.76L23.4,71.32a8.52,8.52,0,0,1,2.27-1.2,10.52,10.52,0,0,1,3.82-.53A5.74,5.74,0,0,1,34,71.26a6.48,6.48,0,0,1,1.43,4.44v7.82Zm-.08-4.84V77.6l-.55-.07a6.91,6.91,0,0,0-.91,0,4.57,4.57,0,0,0-2.44.47,1.59,1.59,0,0,0-.73,1.37c0,1.1.66,1.66,2,1.67a2.87,2.87,0,0,0,1.79-.59A2,2,0,0,0,31.37,78.69Z" transform="translate(-0.01)"/><path class="b045aa62-a44f-43ec-ae33-f6bb09d703e8" d="M37.46,83.58l.1-13.44h4l.11,1.46a4.81,4.81,0,0,1,1.75-1.28,5.59,5.59,0,0,1,2.24-.47,5,5,0,0,1,3.66,1.4,5.51,5.51,0,0,1,1.34,4.08l0,8.31H46.48l.06-7.74A2.71,2.71,0,0,0,46,74.12a1.94,1.94,0,0,0-1.56-.66,2.43,2.43,0,0,0-2,.87,3.27,3.27,0,0,0-.72,2.06l-.05,7.21Z" transform="translate(-0.01)"/><path class="b045aa62-a44f-43ec-ae33-f6bb09d703e8" d="M52,82.16l2-2.62a5.36,5.36,0,0,0,1.73,1,5.88,5.88,0,0,0,2.07.42,4.13,4.13,0,0,0,1.52-.23.89.89,0,0,0,.61-.87.84.84,0,0,0-.24-.62,2.86,2.86,0,0,0-.92-.51,18.48,18.48,0,0,0-2-.61,11.09,11.09,0,0,1-2-.79A4.58,4.58,0,0,1,53.34,76a3.34,3.34,0,0,1-.6-2,3.41,3.41,0,0,1,.76-2.18,5,5,0,0,1,2-1.45,7.5,7.5,0,0,1,2.89-.51,10.49,10.49,0,0,1,3,.41,8.08,8.08,0,0,1,2.36,1.15L62,74.1a7.51,7.51,0,0,0-1.48-.79A5.23,5.23,0,0,0,58.65,73a2.73,2.73,0,0,0-1.38.27.83.83,0,0,0-.43.72c0,.44.3.77.9,1s1.39.46,2.38.74a6.15,6.15,0,0,1,3,1.58A3.82,3.82,0,0,1,64,79.92a3.53,3.53,0,0,1-.88,2.42,5.23,5.23,0,0,1-2.23,1.4,9.07,9.07,0,0,1-2.88.44,11.25,11.25,0,0,1-3.41-.53A6.46,6.46,0,0,1,52,82.16Z" transform="translate(-0.01)"/><path class="b045aa62-a44f-43ec-ae33-f6bb09d703e8" d="M66.68,83.78l.07-10.2H64.58V70.34h2.18v-.69a5.55,5.55,0,0,1,.83-3.12,5,5,0,0,1,2.07-1.77,6,6,0,0,1,2.64-.57,7.42,7.42,0,0,1,2.2.33,5.45,5.45,0,0,1,2,1.1c-.29.44-.58.87-.88,1.3s-.6.86-.89,1.3a3.69,3.69,0,0,0-.94-.5,3.8,3.8,0,0,0-1.06-.18,1.82,1.82,0,0,0-1.38.54,2.17,2.17,0,0,0-.52,1.54v.75H74v3.24H70.83l-.07,10.2Z" transform="translate(-0.01)"/><path class="b045aa62-a44f-43ec-ae33-f6bb09d703e8" d="M73.92,77.1a7.22,7.22,0,0,1,.94-3.6,7,7,0,0,1,2.55-2.58A7.88,7.88,0,0,1,85,71a6.74,6.74,0,0,1,2.5,2.61,7.63,7.63,0,0,1,0,7.22,6.91,6.91,0,0,1-2.54,2.58,7.76,7.76,0,0,1-7.53,0,7,7,0,0,1-2.52-2.62A7.27,7.27,0,0,1,73.92,77.1Zm7.19,3.66a2.86,2.86,0,0,0,1.77-.5A3.34,3.34,0,0,0,84,78.92a4.08,4.08,0,0,0,0-3.48,3.32,3.32,0,0,0-1.07-1.34,3.15,3.15,0,0,0-4.63,1.32,4,4,0,0,0-.39,1.73,4.39,4.39,0,0,0,.36,1.75,3.19,3.19,0,0,0,1.09,1.35A2.91,2.91,0,0,0,81.11,80.76Z" transform="translate(-0.01)"/><path class="b045aa62-a44f-43ec-ae33-f6bb09d703e8" d="M89.85,84,90,70.56h4L94,72.23a6.36,6.36,0,0,1,1.43-1.31,4,4,0,0,1,2.34-.61,7.26,7.26,0,0,1,.93.06,3.29,3.29,0,0,1,.76.21l-.69,3.63A5.15,5.15,0,0,0,97.32,74,3.07,3.07,0,0,0,94,76.81a2.26,2.26,0,0,0,0,.52V84Z" transform="translate(-0.01)"/><path class="b045aa62-a44f-43ec-ae33-f6bb09d703e8" d="M100.25,84l.1-13.44h4l.13,1.49A5.32,5.32,0,0,1,106,70.83a5.53,5.53,0,0,1,4.84.12,5,5,0,0,1,1.39,1.27,5.6,5.6,0,0,1,2-1.36,6.39,6.39,0,0,1,2.48-.47,5.06,5.06,0,0,1,3.91,1.5,5.58,5.58,0,0,1,1.35,4l-.06,8.3H117.8V76.55a2.86,2.86,0,0,0-.51-1.86A1.9,1.9,0,0,0,115.7,74a2.4,2.4,0,0,0-1.91.82,3.14,3.14,0,0,0-.75,2.11L113,84.16h-4l.06-7.65a3,3,0,0,0-.52-1.85,1.9,1.9,0,0,0-1.59-.68,2.44,2.44,0,0,0-1.89.82,3,3,0,0,0-.76,2.11v7.22Z" transform="translate(-0.01)"/><path class="b045aa62-a44f-43ec-ae33-f6bb09d703e8" d="M124.3,77l.08-11.86h4.36l-.08,11.31a5,5,0,0,0,.79,3,4.09,4.09,0,0,0,5.69,0,5.14,5.14,0,0,0,.82-3l0-11.29h4.38l-.08,11.86a8,8,0,0,1-1,4,7,7,0,0,1-2.79,2.71,9.68,9.68,0,0,1-8.5,0A6.88,6.88,0,0,1,125.26,81,8.1,8.1,0,0,1,124.3,77Z" transform="translate(-0.01)"/><path class="b045aa62-a44f-43ec-ae33-f6bb09d703e8" d="M141,82.83l2.05-2.62a5.21,5.21,0,0,0,1.72,1,6.17,6.17,0,0,0,2.08.42,4.14,4.14,0,0,0,1.52-.24.86.86,0,0,0,.6-.87.81.81,0,0,0-.23-.61,2.68,2.68,0,0,0-.92-.51,18.77,18.77,0,0,0-2-.62,10.37,10.37,0,0,1-2-.78,4.36,4.36,0,0,1-1.57-1.32,3.34,3.34,0,0,1-.6-2,3.41,3.41,0,0,1,.76-2.19A4.89,4.89,0,0,1,144.54,71a7.5,7.5,0,0,1,2.89-.51,10.49,10.49,0,0,1,3,.41A8.05,8.05,0,0,1,152.79,72L151,74.76a7.47,7.47,0,0,0-1.48-.78,5.24,5.24,0,0,0-1.92-.36,2.64,2.64,0,0,0-1.38.26.85.85,0,0,0-.43.73c0,.44.29.77.89,1s1.4.46,2.39.73a6.17,6.17,0,0,1,3,1.59,3.8,3.8,0,0,1,.92,2.68,3.46,3.46,0,0,1-.87,2.42,5.23,5.23,0,0,1-2.23,1.4,9.07,9.07,0,0,1-2.88.44,11.25,11.25,0,0,1-3.41-.53A6.43,6.43,0,0,1,141,82.83Z" transform="translate(-0.01)"/></g></g></g></svg>
